<?xml version="1.0" encoding="utf-8"?>
<!-- Generator: Adobe Illustrator 19.2.1, SVG Export Plug-In . SVG Version: 6.00 Build 0)  -->
<svg version="1.1" id="Layer_1" xmlns="http://www.w3.org/2000/svg" xmlns:xlink="http://www.w3.org/1999/xlink" x="0px" y="0px"
	 viewBox="0 0 92.3 43.5" style="enable-background:new 0 0 92.3 43.5;" xml:space="preserve">
<style type="text/css">
	.st0{fill:#FFFFFF;}
</style>
<g>
	<path class="st0" d="M2.1,37.2L2.1,37.2c0-1.8,1.5-3.3,3.3-3.3l3.1,0l0-2.1l-3.1,0c-3,0-5.4,2.4-5.4,5.3l0,0c0,3,2.4,5.4,5.3,5.4
		l4.3,0l0-2.1l-4.2,0C3.6,40.5,2.1,39,2.1,37.2z"/>
	<g>
		<path class="st0" d="M70.2,0.2c-5.2,0-9.8,3-12,7.4c-2.1-4.4-6.7-7.5-11.9-7.5c-5.3,0-9.8,3-12,7.5C32.2,3.1,27.7,0,22.4,0
			C15.1,0,9.1,5.9,9.1,13.2S15,26.5,22.3,26.5c5.3,0,9.8-3,12-7.5c2.1,4.4,6.7,7.5,11.9,7.5c5.2,0,9.8-3,12-7.4
			c2.1,4.4,6.7,7.5,11.9,7.5c7.3,0,13.3-5.9,13.3-13.2C83.4,6.2,77.5,0.2,70.2,0.2z M24.3,7.9C24.3,7.9,24.3,7.9,24.3,7.9
			c-3.1,0-5.5,2.4-5.5,5.4s2.4,5.4,5.4,5.4c0,0,0,0,0.1,0l0,2.6c0,0,0,0-0.1,0c-4.4,0-8-3.6-7.9-8c0-4.4,3.6-8,8-7.9c0,0,0,0,0.1,0
			L24.3,7.9z M56.9,14c-0.3,2.7-2.6,4.8-5.4,4.8c-3,0-5.4-2.4-5.4-5.4c0,0,0,0,0-0.1l-2.6,0c0,0,0,0,0,0.1c0,4.4,3.5,8,7.9,8
			c0.7,0,1.3-0.1,2-0.2C51.5,22.9,49,24,46.2,24c-5.9,0-10.6-4.8-10.6-10.7c0-5.9,4.8-10.6,10.7-10.6c5.7,0,10.3,4.5,10.6,10
			c0,0.2,0,0.5,0,0.7C56.9,13.6,56.9,13.8,56.9,14z M73.5,12.1c-4.4,0-8,3.5-8,7.9c0,0,0,0,0,0.1l2.6,0c0,0,0,0,0-0.1
			c0-3,2.4-5.4,5.4-5.4c2.8,0,5.1,2.1,5.4,4.9c-1.9,2.8-5.1,4.5-8.8,4.5c-5.7,0-10.3-4.4-10.6-10c0-0.2,0-0.4,0-0.7
			c0-0.2,0-0.4,0-0.7c0.4-5.6,5-10,10.7-9.9c5.9,0,10.6,4.8,10.6,10.7c0,0.9-0.1,1.8-0.4,2.7C79.1,13.7,76.5,12.1,73.5,12.1z"/>
		<polygon class="st0" points="16.4,37.2 18.8,34 20.3,34 20.3,31.9 17.6,31.9 14.3,36.5 14.3,33.9 14.3,31.9 12.1,31.8 10.6,31.8 
			10.6,33.9 12.1,33.9 12,40.5 10.6,40.5 10.6,42.6 12,42.6 14.2,42.6 14.3,40.5 14.3,37.9 17.6,42.6 20.2,42.6 21.4,42.6 
			21.4,40.5 18.8,40.5 		"/>
		<polygon class="st0" points="29,31.9 27.9,31.9 27.2,33.4 27.2,33.4 27.2,33.4 23.9,40.5 22.4,40.5 22.4,42.6 22.9,42.6 
			25.3,42.6 28.4,36 31.5,42.6 31.5,42.6 31.5,42.6 34,42.7 34.5,42.7 34.5,40.6 33,40.6 		"/>
		<path class="st0" d="M42.8,33.4L42.8,33.4L42.1,32L41,32L37,40.6l-1.5,0l0,2.1l0.5,0l2.4,0l1-2.1l4.3,0l1,2.1l0,0l0,0l2.4,0l0.5,0
			l0-2.1l-1.5,0L42.8,33.4z M40.4,38.5l1.2-2.5l1.2,2.5L40.4,38.5z"/>
		
			<rect x="76" y="32.8" transform="matrix(3.644302e-003 -1 1 3.644302e-003 43.5907 111.524)" class="st0" width="3.6" height="2.1"/>
		<path class="st0" d="M55.2,32l-1.1,0l-4.1,8.6l-1.5,0l0,2.1l0.5,0l1.4,0l1.1,0l6.2,0l2.4,0l0.5,0l0-2.1l-1.5,0L55.2,32z
			 M52.5,40.6l2.2-4.6l2.1,4.6L52.5,40.6z"/>
		<path class="st0" d="M86.3,31.4c-3.3,0-6,2.7-6,6c0,3.3,2.7,6,6,6c3.3,0,6-2.7,6-6C92.3,34.1,89.6,31.4,86.3,31.4z M86.3,41
			c-2,0-3.6-1.6-3.6-3.6s1.6-3.6,3.6-3.6c2,0,3.6,1.6,3.6,3.6C89.9,39.4,88.3,41.1,86.3,41z"/>
		<path class="st0" d="M74,38.1L74,38.1c0.5-0.7,0.8-1.5,0.8-2.5c0-2.3-1.8-4.1-4.1-4.1c-2.3,0-4.1,1.8-4.1,4.1l2.2,0
			c0-1.1,0.9-1.9,1.9-1.9c1.1,0,1.9,0.9,1.9,1.9c0,0.4-0.1,0.7-0.3,1c-0.6,0.8-2.1,1.9-5.6,4l0,2.1l8.9,0l0-2.1l-4.9,0
			C71.9,40,73.4,38.9,74,38.1z"/>
	</g>
</g>
</svg>
